<?xml version="1.0" encoding="UTF-8"?>
<svg xmlns="http://www.w3.org/2000/svg" xmlns:xlink="http://www.w3.org/1999/xlink" width="500pt" height="500pt" viewBox="0 0 500 500" version="1.1">
<g id="surface4">
<path style=" stroke:none;fill-rule:nonzero;fill:rgb(79.607843%,23.529412%,20%);fill-opacity:1;" d="M 210 287.527344 C 210 301.335938 198.808594 312.527344 185 312.527344 C 171.191406 312.527344 160 301.335938 160 287.527344 C 160 273.71875 171.191406 262.527344 185 262.527344 C 198.808594 262.527344 210 273.71875 210 287.527344 "/>
<path style=" stroke:none;fill-rule:nonzero;fill:rgb(79.607843%,23.529412%,20%);fill-opacity:1;" d="M 405 174.945312 C 405 188.75 393.808594 199.945312 380 199.945312 C 366.191406 199.945312 355 188.75 355 174.945312 C 355 161.136719 366.191406 149.945312 380 149.945312 C 393.808594 149.945312 405 161.136719 405 174.945312 "/>
<path style="fill:none;stroke-width:18;stroke-linecap:round;stroke-linejoin:round;stroke:rgb(79.607843%,23.529412%,20%);stroke-opacity:1;stroke-miterlimit:10;" d="M 159.988281 159.957031 C 176.503906 156.71875 193.496094 156.71875 210.011719 159.957031 "/>
<path style="fill:none;stroke-width:18;stroke-linecap:round;stroke-linejoin:round;stroke:rgb(79.607843%,23.529412%,20%);stroke-opacity:1;stroke-miterlimit:10;" d="M 282.972656 202.082031 C 294.039062 214.765625 302.53125 229.480469 307.984375 245.402344 "/>
<path style="fill:none;stroke-width:18;stroke-linecap:round;stroke-linejoin:round;stroke:rgb(79.607843%,23.529412%,20%);stroke-opacity:1;stroke-miterlimit:10;" d="M 307.984375 329.652344 C 302.53125 345.578125 294.039062 360.289062 282.972656 372.972656 "/>
<path style="fill:none;stroke-width:18;stroke-linecap:round;stroke-linejoin:round;stroke:rgb(79.607843%,23.529412%,20%);stroke-opacity:1;stroke-miterlimit:10;" d="M 210.011719 415.097656 C 155.488281 425.789062 100.199219 400.644531 72.417969 352.527344 C 44.636719 304.410156 50.507812 243.957031 87.027344 202.082031 "/>
<path style="fill:none;stroke-width:9;stroke-linecap:round;stroke-linejoin:round;stroke:rgb(79.607843%,23.529412%,20%);stroke-opacity:1;stroke-miterlimit:10;" d="M 81.417969 336.9375 L 81.417969 368.117188 L 54.417969 352.527344 Z M 81.417969 336.9375 "/>
<path style=" stroke:none;fill-rule:nonzero;fill:rgb(58.431373%,34.509804%,69.803922%);fill-opacity:1;" d="M 302.5 265.878906 C 314.457031 258.972656 329.746094 263.070312 336.652344 275.027344 C 343.554688 286.984375 339.457031 302.273438 327.5 309.179688 C 315.542969 316.082031 300.253906 311.984375 293.347656 300.027344 C 286.445312 288.070312 290.542969 272.78125 302.5 265.878906 "/>
<path style=" stroke:none;fill-rule:nonzero;fill:rgb(58.431373%,34.509804%,69.803922%);fill-opacity:1;" d="M 107.5 153.292969 C 119.457031 146.390625 134.746094 150.488281 141.652344 162.445312 C 148.554688 174.402344 144.457031 189.691406 132.5 196.59375 C 120.542969 203.5 105.253906 199.402344 98.347656 187.445312 C 91.445312 175.488281 95.542969 160.199219 107.5 153.292969 "/>
<path style="fill:none;stroke-width:18;stroke-linecap:round;stroke-linejoin:round;stroke:rgb(58.431373%,34.509804%,69.803922%);stroke-opacity:1;stroke-miterlimit:10;" d="M 217.027344 372.972656 C 205.960938 360.289062 197.46875 345.578125 192.015625 329.652344 "/>
<path style="fill:none;stroke-width:18;stroke-linecap:round;stroke-linejoin:round;stroke:rgb(58.431373%,34.509804%,69.803922%);stroke-opacity:1;stroke-miterlimit:10;" d="M 192.015625 245.402344 C 197.46875 229.480469 205.960938 214.765625 217.027344 202.082031 "/>
<path style="fill:none;stroke-width:18;stroke-linecap:round;stroke-linejoin:round;stroke:rgb(58.431373%,34.509804%,69.803922%);stroke-opacity:1;stroke-miterlimit:10;" d="M 289.988281 159.957031 C 306.503906 156.71875 323.496094 156.71875 340.011719 159.957031 "/>
<path style="fill:none;stroke-width:18;stroke-linecap:round;stroke-linejoin:round;stroke:rgb(58.431373%,34.509804%,69.803922%);stroke-opacity:1;stroke-miterlimit:10;" d="M 412.972656 202.082031 C 449.492188 243.957031 455.363281 304.410156 427.582031 352.527344 C 399.800781 400.644531 344.511719 425.789062 289.988281 415.097656 "/>
<path style="fill:none;stroke-width:9;stroke-linecap:round;stroke-linejoin:round;stroke:rgb(58.431373%,34.509804%,69.803922%);stroke-opacity:1;stroke-miterlimit:10;" d="M 409.582031 352.527344 L 436.582031 336.9375 L 436.582031 368.117188 Z M 409.582031 352.527344 "/>
<path style=" stroke:none;fill-rule:nonzero;fill:rgb(21.960784%,59.607843%,14.901961%);fill-opacity:1;" d="M 237.5 196.59375 C 225.542969 189.691406 221.445312 174.402344 228.347656 162.445312 C 235.253906 150.488281 250.542969 146.390625 262.5 153.292969 C 274.457031 160.199219 278.554688 175.488281 271.652344 187.445312 C 264.746094 199.402344 249.457031 203.5 237.5 196.59375 "/>
<path style=" stroke:none;fill-rule:nonzero;fill:rgb(21.960784%,59.607843%,14.901961%);fill-opacity:1;" d="M 237.5 421.761719 C 225.542969 414.859375 221.445312 399.570312 228.347656 387.609375 C 235.253906 375.652344 250.542969 371.558594 262.5 378.460938 C 274.457031 385.363281 278.554688 400.652344 271.652344 412.609375 C 264.746094 424.570312 249.457031 428.664062 237.5 421.761719 "/>
<path style="fill:none;stroke-width:18;stroke-linecap:round;stroke-linejoin:round;stroke:rgb(21.960784%,59.607843%,14.901961%);stroke-opacity:1;stroke-miterlimit:10;" d="M 372.984375 217.070312 C 367.53125 232.992188 359.039062 247.707031 347.972656 260.390625 "/>
<path style="fill:none;stroke-width:18;stroke-linecap:round;stroke-linejoin:round;stroke:rgb(21.960784%,59.607843%,14.901961%);stroke-opacity:1;stroke-miterlimit:10;" d="M 275.011719 302.515625 C 258.496094 305.753906 241.503906 305.753906 224.988281 302.515625 "/>
<path style="fill:none;stroke-width:18;stroke-linecap:round;stroke-linejoin:round;stroke:rgb(21.960784%,59.607843%,14.901961%);stroke-opacity:1;stroke-miterlimit:10;" d="M 152.027344 260.390625 C 140.960938 247.707031 132.46875 232.992188 127.015625 217.070312 "/>
<path style="fill:none;stroke-width:18;stroke-linecap:round;stroke-linejoin:round;stroke:rgb(21.960784%,59.607843%,14.901961%);stroke-opacity:1;stroke-miterlimit:10;" d="M 127.015625 132.820312 C 145.019531 80.253906 194.4375 44.945312 250 44.945312 C 305.5625 44.945312 354.980469 80.253906 372.984375 132.820312 "/>
<path style="fill:none;stroke-width:9;stroke-linecap:round;stroke-linejoin:round;stroke:rgb(21.960784%,59.607843%,14.901961%);stroke-opacity:1;stroke-miterlimit:10;" d="M 259 60.53125 L 232 44.945312 L 259 29.355469 Z M 259 60.53125 "/>
</g>
</svg>
